<svg xmlns="http://www.w3.org/2000/svg" data-name="Layer 2" viewBox="0 0 1943.74 1943.74">
  <defs>
    <linearGradient id="a" x1="1599.86" x2="364.43" y1="1640.95" y2="324.69" gradientUnits="userSpaceOnUse">
      <stop offset=".68" stop-color="#13181b"/>
      <stop offset=".77" stop-color="#181d20"/>
      <stop offset="1" stop-color="#24292c"/>
    </linearGradient>
    <linearGradient id="b" x1="610.23" x2="1405.25" y1="568.47" y2="1360.39" gradientUnits="userSpaceOnUse">
      <stop offset="0" stop-color="#9bda65"/>
      <stop offset=".22" stop-color="#70d381"/>
      <stop offset=".45" stop-color="#4ccd98"/>
      <stop offset=".66" stop-color="#33c9a9"/>
      <stop offset=".85" stop-color="#23c6b3"/>
      <stop offset="1" stop-color="#1ec6b7"/>
    </linearGradient>
    <mask id="c" width="1141" height="1157" x="409.87" y="372.87" maskUnits="userSpaceOnUse"/>
  </defs>
  <g data-name="Layer 1">
    <circle cx="971.87" cy="971.87" r="971.87" style="fill:url(#a)"/>
    <path d="M1415.93 1527.48c-2.18 0-4.4-.08-6.58-.24-26.48-1.96-47.93-12.85-65.58-33.31l-70.82-73.89c-86.12 52.22-183.15 78.7-288.41 78.7-15.56 0-31.5-.59-47.35-1.77-80.94-5.99-156.74-26.53-225.29-61.07-65.59-33.05-122.69-77.88-169.7-133.26-94.03-110.76-139.71-254.42-128.61-404.51l.23-3.08c10.48-141.8 72-272.59 173.22-368.29 50.55-47.8 109.05-85.15 173.87-111.02 67.51-26.94 140-40.61 215.43-40.61 15.43 0 31.17.58 46.77 1.74 80.94 5.98 156.74 26.53 225.29 61.07 65.59 33.05 122.69 77.88 169.7 133.26 94.03 110.76 139.71 254.42 128.61 404.5l-.23 3.08c-8.84 119.6-54.9 231.28-133.23 323.13l63.8 60.87c23.22 21.57 32.96 46.44 30.61 78.23-1.72 23.32-12.13 45.09-29.31 61.3-17.19 16.22-39.35 25.15-62.39 25.16h-.01ZM977.88 553.8c-194.02 0-345.82 148.53-360.95 353.18l-.23 3.08c-16.03 216.86 128.78 392 336.85 407.38 10.06.74 20.14 1.12 29.95 1.12 54.81 0 106.09-11.54 156.68-35.26l-123.67-122.01c-23.2-21.55-32.93-46.41-30.58-78.2 1.73-23.32 12.13-45.09 29.31-61.3 17.19-16.22 39.35-25.15 62.39-25.15 2.19 0 4.41.08 6.59.24 29.25 2.16 42.41 11.77 65.46 33.18l.09.09 127.72 134.9c38.08-55.71 60.23-122.37 65.84-198.18l.23-3.08c7.6-102.76-21.56-201.06-82.1-276.79-62.08-77.66-152.51-124.58-254.64-132.13-9.66-.71-19.41-1.08-28.95-1.08Z" style="fill:url(#b)"/>
    <g style="mask:url(#c)">
      <g style="opacity:.82">
        <path d="M1415.93 1527.48c-2.18 0-4.4-.08-6.58-.24-26.48-1.96-47.93-12.85-65.58-33.31l-70.82-73.89c-86.12 52.22-183.15 78.7-288.41 78.7-15.56 0-31.5-.59-47.35-1.77-80.94-5.99-156.74-26.53-225.29-61.07-65.59-33.05-122.69-77.88-169.7-133.26-94.03-110.76-139.71-254.42-128.61-404.51l.23-3.08c10.48-141.8 72-272.59 173.22-368.29 50.55-47.8 109.05-85.15 173.87-111.02 67.51-26.94 140-40.61 215.43-40.61 15.43 0 31.17.58 46.77 1.74 80.94 5.98 156.74 26.53 225.29 61.07 65.59 33.05 122.69 77.88 169.7 133.26 94.03 110.76 139.71 254.42 128.61 404.5l-.23 3.08c-8.84 119.6-54.9 231.28-133.23 323.13l63.8 60.87c23.22 21.57 32.96 46.44 30.61 78.23-1.72 23.32-12.13 45.09-29.31 61.3-17.19 16.22-39.35 25.15-62.39 25.16h-.01ZM977.88 553.8c-194.02 0-345.82 148.53-360.95 353.18l-.23 3.08c-16.03 216.86 128.78 392 336.85 407.38 10.06.74 20.14 1.12 29.95 1.12 54.81 0 106.09-11.54 156.68-35.26l-123.67-122.01c-23.2-21.55-32.93-46.41-30.58-78.2 1.73-23.32 12.13-45.09 29.31-61.3 17.19-16.22 39.35-25.15 62.39-25.15 2.19 0 4.41.08 6.59.24 29.25 2.16 42.41 11.77 65.46 33.18l.09.09 127.72 134.9c38.08-55.71 60.23-122.37 65.84-198.18l.23-3.08c7.6-102.76-21.56-201.06-82.1-276.79-62.08-77.66-152.51-124.58-254.64-132.13-9.66-.71-19.41-1.08-28.95-1.08Z" style="fill:#fff"/>
      </g>
    </g>
  </g>
</svg>

